{"title":"Terminator Genisys {2015} NEW HDTS XVID AC3 READNFO-MRG","uid":12103142,"size":1902418513,"categoryP":"video","categoryS":"movies","magnet":"?xt=urn:btih:3e20bc2dd0b16f18cc6f35d7435a6f4803a1a0f2&amp;dn=Terminator+Genisys+%7B2015%7D+NEW+HDTS+XVID+AC3+READNFO-MRG&amp;tr=udp%3A%2F%2Ftracker.openbittorrent.com%3A80&amp;tr=udp%3A%2F%2Fopen.demonii.com%3A1337&amp;tr=udp%3A%2F%2Ftracker.coppersurfer.tk%3A6969&amp;tr=udp%3A%2F%2Fexodus.desync.com%3A6969","seeders":105,"leechers":35,"uploader":"SaM","files":15,"time":1436381501,"description":"Terminator Genisys {2015} NEW HDTS XVID AC3 READNFO-MRG\n\nnfo: Trimmed black edges off added a few filters ..smooth.. denoise\ndeblock.rgb...looks really nice now....see sample.....\n\nFormat : AVI\nFormat/Info : Audio Video Interleave\nFile size : 1.72 GiB\nDuration : 1h 58mn\nOverall bit rate : 2 083 Kbps\nWriting library : VirtualDub build 35491/release\n\nVideo\nID : 0\nFormat : MPEG-4 Visual\nFormat profile : Advanced Simple@L5\nFormat settings, BVOP : 2\nFormat settings, QPel : No\nFormat settings, GMC : No warppoints\nFormat settings, Matrix : Default (H.263)\nMuxing mode : Packed bitstream\nCodec ID : XVID\nCodec ID/Hint : XviD\nDuration : 1h 58mn\nBit rate : 1 848 Kbps\nWidth : 720 pixels\nHeight : 332 pixels\nDisplay aspect ratio : 2.2:1\nFrame rate : 29.917 fps\nColor space : YUV\nChroma subsampling : 4:2:0\nBit depth : 8 bits\nScan type : Progressive\nCompression mode : Lossy\nBits/(Pixel*Frame) : 0.258\nStream size : 1.53 GiB (89%)\nWriting library : XviD 73\n\nAudio\nID : 1\nFormat : AC-3\nFormat/Info : Audio Coding 3\nMode extension : CM (complete main)\nFormat settings, Endianness : Big\nCodec ID : 2000\nDuration : 1h 57mn\nBit rate mode : Constant\nBit rate : 224 Kbps\nChannel(s) : 2 channels\nChannel positions : Front: L R\nSampling rate : 48.0 KHz\nCompression mode : Lossy\nStream size : 189 MiB (11%)\nAlignment : Split accross interleaves\nInterleave, duration : 34 ms (1.00 video frame)\nInterleave, preload duratio : 500 ms\n &lt;a href=&quot;\nhttp://extraimago.com/image/cQi&quot; rel=&quot;nofollow&quot; target=&quot;_NEW&quot;&gt;\nhttp://extraimago.com/image/cQi&lt;/a&gt; &lt;a href=&quot;\nhttp://extraimago.com/image/cQm&quot; rel=&quot;nofollow&quot; target=&quot;_NEW&quot;&gt;\nhttp://extraimago.com/image/cQm&lt;/a&gt; &lt;a href=&quot;\nhttp://extraimago.com/image/cQR&quot; rel=&quot;nofollow&quot; target=&quot;_NEW&quot;&gt;\nhttp://extraimago.com/image/cQR&lt;/a&gt; &lt;a href=&quot;\nhttp://extraimago.com/image/cQQ&quot; rel=&quot;nofollow&quot; target=&quot;_NEW&quot;&gt;\nhttp://extraimago.com/image/cQQ&lt;/a&gt; &lt;a href=&quot;\nhttp://extraimago.com/image/cQL&quot; rel=&quot;nofollow&quot; target=&quot;_NEW&quot;&gt;\nhttp://extraimago.com/image/cQL&lt;/a&gt; &lt;a href=&quot;\nhttp://extraimago.com/image/cQy&quot; rel=&quot;nofollow&quot; target=&quot;_NEW&quot;&gt;\nhttp://extraimago.com/image/cQy&lt;/a&gt; &lt;a href=&quot;\nhttp://extraimago.com/image/cQq&quot; rel=&quot;nofollow&quot; target=&quot;_NEW&quot;&gt;\nhttp://extraimago.com/image/cQq&lt;/a&gt; &lt;a href=&quot;\nhttp://extraimago.com/image/cQS&quot; rel=&quot;nofollow&quot; target=&quot;_NEW&quot;&gt;\nhttp://extraimago.com/image/cQS&lt;/a&gt; &lt;a href=&quot;\nhttp://extraimago.com/image/cQO&quot; rel=&quot;nofollow&quot; target=&quot;_NEW&quot;&gt;\nhttp://extraimago.com/image/cQO&lt;/a&gt; &lt;a href=&quot;\nhttp://extraimago.com/image/cQE&quot; rel=&quot;nofollow&quot; target=&quot;_NEW&quot;&gt;\nhttp://extraimago.com/image/cQE&lt;/a&gt;","torrent":{"xt":"urn:btih:3e20bc2dd0b16f18cc6f35d7435a6f4803a1a0f2","amp;dn":"Terminator+Genisys+%7B2015%7D+NEW+HDTS+XVID+AC3+READNFO-MRG","amp;tr":["udp%3A%2F%2Ftracker.openbittorrent.com%3A80","udp%3A%2F%2Fopen.demonii.com%3A1337","udp%3A%2F%2Ftracker.coppersurfer.tk%3A6969","udp%3A%2F%2Fexodus.desync.com%3A6969"],"infoHash":"3e20bc2dd0b16f18cc6f35d7435a6f4803a1a0f2","infoHashBuffer":{"type":"Buffer","data":[62,32,188,45,208,177,111,24,204,111,53,215,67,90,111,72,3,161,160,242]},"announce":[],"urlList":[]}}